<?xml version="1.0" encoding="utf-8"?>
<!-- Generator: Adobe Illustrator 21.0.0, SVG Export Plug-In . SVG Version: 6.00 Build 0)  -->
<svg version="1.1" id="图层_1" xmlns="http://www.w3.org/2000/svg" xmlns:xlink="http://www.w3.org/1999/xlink" x="0px" y="0px"
	 viewBox="0 0 272 272" style="enable-background:new 0 0 272 272;" xml:space="preserve">
<style type="text/css">
	.st0{fill:#5CD9FE;}
	.st1{fill:#FFFFFF;}
</style>
<g>
	<path class="st0" d="M136,272c75.1,0,136-60.9,136-136S211.1,0,136,0S0,60.9,0,136S60.9,272,136,272z"/>
</g>
<g>
	<path class="st1" d="M173.8,89.2c-19.7-15.9-47.2-17.6-68.7-4.4S72.7,123.3,78,148c2.3,10.8,1.2,26.8-1.8,40.3
		c-0.5,1.9,0,3.8,1.2,5.3s3,2.4,4.9,2.4c0.1,0,1.3-0.2,1.3-0.2c14-2.8,31.4-4.7,40.1-2.1c4.1,1,8.4,1.5,12.7,1.3
		c25.3,0,47.8-15.9,56.2-39.7C201,131.6,193.5,105.1,173.8,89.2z M142.3,154.3h-31.4c-2.6,0-4.7-2.1-4.7-4.7c0-2.6,2.1-4.7,4.7-4.7
		h31.4c2.6,0,4.7,2.1,4.7,4.7S144.9,154.3,142.3,154.3z M161.1,129.2h-50.2c-2.6,0-4.7-2.1-4.7-4.7s2.1-4.7,4.7-4.7h50.2
		c2.6,0,4.7,2.1,4.7,4.7S163.7,129.2,161.1,129.2z"/>
</g>
</svg>
