<?xml version="1.0" encoding="utf-8" ?>
<svg xmlns="http://www.w3.org/2000/svg" xmlns:xlink="http://www.w3.org/1999/xlink" width="364" height="362">
	<defs>
		<clipPath id="clip_0">
			<rect x="-358" y="-459" width="1080" height="1920" clip-rule="evenodd"/>
		</clipPath>
	</defs>
	<g clip-path="url(#clip_0)">
		<path fill="rgb(217,241,255)" stroke="none" transform="translate(8 8)" d="M343 171.5C343 214.539 327.238 253.738 301.023 283.792C296.695 288.773 292.122 293.51 287.221 298.002C256.76 325.932 216.09 343 171.5 343C126.91 343 86.24 325.932 55.7785 298.002C50.8783 293.51 46.3049 288.773 41.9769 283.792C15.7618 253.738 0 214.538 0 171.5C0 76.7669 76.7668 0 171.5 0C266.233 0 343 76.7673 343 171.5Z"/>
	</g>
	<defs>
		<clipPath id="clip_1">
			<rect x="-358" y="-459" width="1080" height="1920" clip-rule="evenodd"/>
		</clipPath>
	</defs>
	<g clip-path="url(#clip_1)">
		<path fill="rgb(159,217,250)" stroke="none" d="M58.2067 311.901C91.2405 342.269 134.139 359 179 359C223.861 359 266.759 342.269 299.793 311.901C304.753 307.334 309.602 302.337 314.18 297.052C342.437 264.563 358 222.821 358 179.5C358 80.5199 277.704 0 179 0C80.2956 0 0 80.5199 0 179.5C0 222.821 15.563 264.563 43.812 297.036C48.3981 302.337 53.2466 307.334 58.2067 311.901ZM16.1514 179.5C16.1514 89.4548 89.206 16.1961 179 16.1961C268.794 16.1961 341.849 89.4548 341.849 179.5C341.849 218.899 327.7 256.871 301.995 286.419C297.806 291.249 293.395 295.808 288.872 299.961C258.835 327.587 219.808 342.803 179 342.803C138.192 342.803 99.1653 327.587 69.1279 299.961C64.6052 295.808 60.1939 291.249 55.997 286.402C30.2995 256.871 16.1514 218.899 16.1514 179.5Z" fill-rule="evenodd"/>
	</g>
	<defs>
		<clipPath id="clip_2">
			<rect x="-358" y="-459" width="1080" height="1920" clip-rule="evenodd"/>
		</clipPath>
	</defs>
	<g clip-path="url(#clip_2)">
		<path fill="rgb(255,255,255)" stroke="none" transform="translate(75 81)" d="M184.442 79L25.5576 79C11.4425 79 0 67.5271 0 53.3746L0 25.6254C0 11.4729 11.4425 0 25.5576 0L184.442 0C198.557 0 210 11.4729 210 25.6254L210 53.3746C210 67.5271 198.557 79 184.442 79L184.442 79Z"/>
	</g>
	<defs>
		<clipPath id="clip_3">
			<rect x="-358" y="-459" width="1080" height="1920" clip-rule="evenodd"/>
		</clipPath>
	</defs>
	<g clip-path="url(#clip_3)">
		<path fill="rgb(159,217,250)" stroke="none" transform="translate(75 81)" d="M25.558 0L184.442 0C198.557 0 210 11.4728 210 25.6253L210 53.3747C210 67.5272 198.557 79 184.442 79L25.558 79C11.4429 79 0 67.5272 0 53.3747L0 25.6253C0 11.4728 11.4429 0 25.558 0ZM193.799 25.6257C193.799 20.4531 189.602 16.2443 184.442 16.2443L25.558 16.2443C20.3982 16.2443 16.201 20.4531 16.201 25.6257L16.201 53.3751C16.201 58.5477 20.3982 62.7565 25.558 62.7565L184.442 62.7565C189.602 62.7565 193.799 58.5477 193.799 53.3751L193.799 25.6257Z" fill-rule="evenodd"/>
	</g>
	<defs>
		<clipPath id="clip_4">
			<rect x="-358" y="-459" width="1080" height="1920" clip-rule="evenodd"/>
		</clipPath>
	</defs>
	<g clip-path="url(#clip_4)">
		<path fill="rgb(255,255,255)" stroke="none" transform="translate(50 118)" d="M259 24.5012L259 172.253C259 178.386 256.822 184.411 252.563 188.822C250.182 191.289 247.727 193.682 245.201 195.999C214.745 223.931 174.082 241 129.5 241C84.9179 241 44.2552 223.931 13.7992 195.999C11.273 193.682 8.81795 191.289 6.4374 188.822C2.1777 184.41 0 178.386 0 172.253L0 24.5012C0 10.9695 10.9669 0 24.4955 0L234.504 0C248.033 0 259 10.9695 259 24.5012Z"/>
	</g>
	<defs>
		<clipPath id="clip_5">
			<rect x="-358" y="-459" width="1080" height="1920" clip-rule="evenodd"/>
		</clipPath>
	</defs>
	<g clip-path="url(#clip_5)">
		<path fill="rgb(159,217,250)" stroke="none" transform="translate(50 118)" d="M24.4955 0L234.504 0C248.033 0 259 10.9698 259 24.5016L259 172.253C259 178.386 256.822 184.411 252.562 188.822C250.182 191.289 247.727 193.682 245.2 195.999C214.744 223.931 174.082 241 129.5 241C84.9183 241 44.2557 223.931 13.7996 195.999C11.2731 193.682 8.81805 191.289 6.43781 188.822C2.1777 184.411 0 178.386 0 172.253L0 24.5012C0 10.9694 10.9669 0 24.4955 0ZM242.798 24.5016C242.798 19.9276 239.077 16.2058 234.504 16.2058L24.4951 16.2058C19.9222 16.2058 16.2013 19.9276 16.2013 24.5016L16.2013 172.253C16.2013 174.384 16.89 176.32 18.0911 177.563C20.2427 179.793 22.4618 181.957 24.7452 184.052C53.3955 210.326 90.5961 224.795 129.5 224.795C168.403 224.795 205.604 210.326 234.251 184.055C236.535 181.96 238.755 179.795 240.907 177.565C242.109 176.321 242.798 174.385 242.798 172.253L242.798 24.5016Z" fill-rule="evenodd"/>
	</g>
	<defs>
		<clipPath id="clip_6">
			<rect x="-358" y="-459" width="1080" height="1920" clip-rule="evenodd"/>
		</clipPath>
	</defs>
	<g clip-path="url(#clip_6)">
		<path fill="rgb(255,255,255)" stroke="none" transform="translate(99 212)" d="M0 0L158 0"/>
	</g>
	<defs>
		<clipPath id="clip_7">
			<rect x="-358" y="-459" width="1080" height="1920" clip-rule="evenodd"/>
		</clipPath>
	</defs>
	<g clip-path="url(#clip_7)">
		<path fill="rgb(159,217,250)" stroke="none" transform="translate(91 204)" d="M166.868 16L8.13231 16C3.64194 16 0 12.4173 0 8C0 3.58269 3.64194 0 8.13231 0L166.868 0C171.358 0 175 3.58269 175 8C175 12.4173 171.358 16 166.868 16L166.868 16Z"/>
	</g>
	<defs>
		<clipPath id="clip_8">
			<rect x="-358" y="-459" width="1080" height="1920" clip-rule="evenodd"/>
		</clipPath>
	</defs>
	<g clip-path="url(#clip_8)">
		<path fill="rgb(255,255,255)" stroke="none" transform="translate(99 169)" d="M0 0L158 0"/>
	</g>
	<defs>
		<clipPath id="clip_9">
			<rect x="-358" y="-459" width="1080" height="1920" clip-rule="evenodd"/>
		</clipPath>
	</defs>
	<g clip-path="url(#clip_9)">
		<path fill="rgb(159,217,250)" stroke="none" transform="translate(91 162)" d="M166.868 16L8.13231 16C3.64194 16 0 12.4173 0 8C0 3.58269 3.64194 0 8.13231 0L166.868 0C171.358 0 175 3.58269 175 8C175 12.4173 171.358 16 166.868 16L166.868 16Z"/>
	</g>
	<defs>
		<clipPath id="clip_10">
			<rect x="-358" y="-459" width="1080" height="1920" clip-rule="evenodd"/>
		</clipPath>
	</defs>
	<g clip-path="url(#clip_10)">
		<path fill="rgb(255,255,255)" stroke="none" transform="translate(99 259)" d="M0 0L77 0"/>
	</g>
	<defs>
		<clipPath id="clip_11">
			<rect x="-358" y="-459" width="1080" height="1920" clip-rule="evenodd"/>
		</clipPath>
	</defs>
	<g clip-path="url(#clip_11)">
		<path fill="rgb(159,217,250)" stroke="none" transform="translate(91 226)" d="M205.068 136C167.55 136 137.135 105.555 137.135 68C137.135 30.4446 167.55 0 205.068 0C242.586 0 273 30.4446 273 68C273 105.555 242.586 136 205.068 136ZM8.07797 41.8533L85.0111 41.8533C89.4715 41.8533 93.0891 38.232 93.0891 33.7672C93.0891 29.3024 89.4715 25.6812 85.0111 25.6812L8.07797 25.6812C3.61761 25.6812 0 29.3024 0 33.7672C0 38.232 3.61761 41.8533 8.07797 41.8533Z" fill-rule="evenodd"/>
	</g>
	<defs>
		<clipPath id="clip_12">
			<rect x="-358" y="-459" width="1080" height="1920" clip-rule="evenodd"/>
		</clipPath>
	</defs>
	<g clip-path="url(#clip_12)">
		<path fill="rgb(255,255,255)" stroke="none" transform="translate(261 268)" d="M28.2654 57C26.1311 56.999 24.0847 56.1426 22.577 54.6194L2.35892 34.2332C-0.786308 31.0699 -0.786308 25.9256 2.35892 22.7622C5.49617 19.5828 10.5981 19.5828 13.7358 22.7622L27.7269 36.8616L55.7723 2.92718C58.5928 -0.515687 63.6712 -0.995038 67.1017 1.88067C70.5161 4.75637 70.9836 9.86891 68.1316 13.3118L34.4532 54.076C33.0052 55.8303 30.8915 56.8886 28.6302 56.9915C28.5111 57 28.3845 57 28.2654 57L28.2654 57Z"/>
	</g>
</svg>
