<?xml version="1.0" encoding="utf-8"?>
<!-- Generator: Adobe Illustrator 21.0.0, SVG Export Plug-In . SVG Version: 6.00 Build 0)  -->
<svg version="1.1" id="图层_1" xmlns="http://www.w3.org/2000/svg" xmlns:xlink="http://www.w3.org/1999/xlink" x="0px" y="0px"
	 viewBox="0 0 272 272" style="enable-background:new 0 0 272 272;" xml:space="preserve">
<style type="text/css">
	.st0{fill:#8EE5B2;}
	.st1{fill:#FFFFFF;}
</style>
<g>
	<path class="st0" d="M136,272c75.1,0,136-60.9,136-136S211.1,0,136,0S0,60.9,0,136S60.9,272,136,272z"/>
</g>
<g>
	<path class="st1" d="M193.9,184.1c-5.4-4.5-15.4-12.1-15.4-22.1v-34.6h-0.1c-0.7-22.7-12.2-36.1-32.7-38.9c1.9-1.7,3.2-4.1,3.2-7.1
		c0-6.4-5.2-13.2-11.5-13.2c-6.4,0-11.5,6.8-11.5,13.2c0,3.1,1.2,5.5,3.2,7.1c-20.6,2.8-32,16.3-32.7,38.9h-0.1v34.6
		c0,10.5-10,17.7-15.4,22.1c-3.5,4.8,2.4,5.8,5.9,5.8H188C191.5,189.9,197.4,188.9,193.9,184.1L193.9,184.1z"/>
	<path class="st1" d="M135.7,213c9.8,0,17.9-7.1,19.5-16.5h-38.9C117.8,205.8,125.9,213,135.7,213L135.7,213z"/>
</g>
</svg>
