<?xml version="1.0" encoding="utf-8"?>
<!-- Generator: Adobe Illustrator 21.0.0, SVG Export Plug-In . SVG Version: 6.00 Build 0)  -->
<svg version="1.1" id="图层_1" xmlns="http://www.w3.org/2000/svg" xmlns:xlink="http://www.w3.org/1999/xlink" x="0px" y="0px"
	 viewBox="0 0 688 600" style="enable-background:new 0 0 688 600;" xml:space="preserve">
<style type="text/css">
	.st0{fill:#C3CFD5;}
</style>
<g>
	<g>
		<path class="st0" d="M644.6,0H43.5C19.5,0,0,19.6,0,43.7v414.9c0,24.1,19.5,43.7,43.5,43.7h32.7c2,6.1,5.6,12.2,11,17.9
			c1.3,1.4,3,2.4,4.9,2.9c54.5,14.2,68,31.8,71.2,41c3.6,10.2-2.3,18.5-2.7,19c-3.5,4.5-2.7,11,1.8,14.6s11,2.9,14.6-1.7
			c5-6.3,11.8-21.4,6.2-38.3c-7.7-23.1-35.6-41.3-82.8-54c-3.9-4.7-5.1-8.5-5.1-11.7v-0.1c0-4.2,2.6-8.4,7.4-12
			c0.1-0.1,0.3-0.2,0.4-0.3c1.3-1,2.9-2,4.5-2.9c0.4-0.2,0.8-0.4,1.2-0.6c2-1,4.3-1.8,6.6-2.6c3.6-0.9,10.2-2.1,20.6-2.1
			c18.2,0,39.5,3.6,63.2,10.6c4,1.7,7.9,3.5,11.9,5.7c1.2,0.7,2.4,1.3,3.6,2c5,2.8,10,5.9,15.1,9.4c0.4,0.3,0.8,0.5,1.3,0.8
			c79.7,56.2,70.8,84.5,70.9,84.5c-2.7,5.1-0.8,11.4,4.3,14.1c1.5,0.8,3.2,1.2,4.9,1.2c3.8,0,7.4-2,9.2-5.6c3.3-6.2,14.2-37.6-52-92
			h184.5c-66.2,54.5-55.3,85.8-52,92c1.9,3.6,5.7,5.8,9.6,5.8c1.6,0,3.2-0.4,4.7-1.2c5.1-2.7,7.2-8.7,4.5-13.9
			c-0.1-0.3-9.5-28.6,70.7-85c5.6-3.9,11.1-7.3,16.7-10.4c1-0.6,2-1.2,3-1.7c4.2-2.2,8.3-4.1,12.4-5.9c23.6-7,44.9-10.6,63.1-10.6
			c10.4,0,17,1.2,20.5,2c2.3,0.8,4.7,1.6,6.6,2.6c0.4,0.2,0.8,0.4,1.1,0.5c1.8,0.9,3.4,2,4.8,3l0.2,0.1c4.8,3.6,7.4,7.9,7.4,12.1
			c0,0.1,0,0.1,0,0.2c0,3.1-1.3,6.9-5.1,11.6c-47.3,12.7-75.1,30.9-82.8,54c-5.7,16.9,1.2,32,6.2,38.3c3.6,4.6,10.1,5.3,14.6,1.7
			s5.3-10.1,1.7-14.7c-0.1-0.1-6.2-8.3-2.7-18.6c3.1-9.3,16.5-27,71.3-41.3c1.9-0.5,3.6-1.5,4.9-2.9c5.5-5.7,9.1-11.8,11.1-18
			c23.5-0.5,42.5-19.8,42.5-43.5V43.7C688.1,19.6,668.5,0,644.6,0z M201.2,399.4c12.9,33.3,4.9,52.3-0.5,60.4l0,0
			c-0.9-0.4-1.9-0.7-2.8-1.1c-12.5-4.7-24.5-7.7-35.8-9.2c-1-0.1-2-0.3-2.9-0.4c-5.3-0.6-10.5-1-15.5-1c-1.1,0-2.2,0.1-3.3,0.1
			c-4.1,0.1-8.2,0.4-12,0.9c-1,0.1-2.1,0.2-3.1,0.3c-0.8,0.1-1.6,0.3-2.4,0.5c3.6-17.3,6.1-42.9-5.3-60
			c-12.2-18.5-15-75.3-0.2-118.2c6.4-18.5-1.3-51.9-6.7-71h92.8c3.9,13.8,10.6,49-5.1,93.3l-1.1,3.1
			C189.7,318.4,180.2,344.8,201.2,399.4z M604.1,389.8c-11.4,17.2-8.9,42.7-5.3,60.1c-0.8-0.2-1.6-0.4-2.4-0.5
			c-0.7-0.1-1.4-0.1-2.1-0.3c-4.3-0.6-8.9-0.9-13.6-1c-0.6,0-1.2-0.1-1.9-0.1c-17.4-0.1-37.2,3.4-57.9,11.7c-5.4-8-13.3-27-0.5-60.4
			c21-54.6,11.6-81,3.9-102.3l0,0l-1.1-3c-15.7-44.4-9-79.5-5.1-93.3H611c-5.4,19.1-13.1,52.5-6.7,71
			C619.1,314.6,616.3,371.5,604.1,389.8z M645.5,481.3c-1.4-4-3.6-7.9-6.7-11.5c-0.4-0.5-1-0.9-1.4-1.4c-0.2-0.2-0.4-0.3-0.5-0.5
			c-1.5-1.6-3.3-3.1-5.2-4.5c-0.6-0.5-1.2-0.9-1.8-1.4c-1.5-1-3.1-2-4.8-3c-0.7-0.4-1.3-0.9-2.1-1.3c-0.2-0.1-0.5-0.2-0.8-0.3
			c0,0,0,0-0.1,0c-4-13.4-9.8-42.3-0.7-55.9c17.4-26.3,18.5-90,2.6-136.6c-4.3-12.5,2.4-43.3,8.8-64.1h4.1c5.8,0,10.4-4.7,10.4-10.5
			s-4.7-10.5-10.4-10.5H501.8c-5.8,0-10.4,4.7-10.4,10.5c0,4.1,2.3,7.5,5.7,9.2c-4.7,18.6-9.7,55.4,6.6,101.6l1.1,3.2
			c6.8,18.9,14.5,40.3-3.8,87.6c-14.8,38.3-7,63.3,0.8,76.7c-6.9,3.7-14,7.9-21,12.7l0,0H241c-0.7-0.5-1.3-0.8-2-1.2
			c-5.7-3.8-11.4-7.3-17.1-10.4c-0.7-0.4-1.4-0.8-2.1-1.2c7.9-13.4,15.6-38.4,0.8-76.7c-18.2-47.2-10.6-68.6-3.8-87.5v-0.1l1.2-3.2
			c16.3-46.1,11.3-82.9,6.6-101.6c3.4-1.7,5.7-5.1,5.7-9.2c0-5.8-4.7-10.5-10.4-10.5H84.8c-5.8,0-10.4,4.7-10.4,10.5
			s4.7,10.5,10.4,10.5h4.1c6.4,20.8,13.1,51.6,8.8,64.1c-15.8,45.7-14.5,110.7,2.5,136.6c9,13.6,3.2,42.5-0.8,55.9
			c-0.3,0.1-0.6,0.2-0.8,0.4c-0.8,0.4-1.5,1-2.3,1.4c-1.6,0.9-3.1,1.8-4.5,2.8c-0.7,0.5-1.4,1-2,1.5c-1.8,1.4-3.5,2.9-5,4.4
			c-0.2,0.2-0.4,0.4-0.6,0.6c-0.4,0.4-1,0.9-1.4,1.3c-1.3,1.5-2.3,3.1-3.3,4.6c0,0.1-0.1,0.1-0.1,0.2c-1.4,2.2-2.5,4.5-3.3,6.8H43.5
			c-12.5,0-22.7-10.2-22.7-22.7V43.7C20.8,31.2,31,21,43.5,21h601.1c12.5,0,22.6,10.2,22.6,22.7v414.9l0,0
			C667.2,470.8,657.5,480.8,645.5,481.3z"/>
	</g>
	<g>
		<path class="st0" d="M322,155.2c0-5.9-4.7-10.8-10.5-10.8c-35.5,0-65.5-22.6-80-33.4c-3.3-2.5-5.9-4.4-7.7-5.5
			c-5-3-11.4-1.4-14.3,3.8c-3,5.1-1.3,11.7,3.6,14.7c1.4,0.9,3.5,2.4,6.1,4.4c16.2,12.2,50,37.5,92.3,37.5
			C317.3,166,322,161.2,322,155.2L322,155.2z"/>
	</g>
	<g>
		<path class="st0" d="M472.2,105.5c-1.8,1.1-4.4,3-7.8,5.5c-14.4,10.8-44.5,33.4-80,33.4c-5.8,0-10.5,4.8-10.5,10.8
			c0,5.9,4.7,10.8,10.5,10.8c42.3,0,76.1-25.3,92.3-37.5c2.6-2,4.7-3.6,6.1-4.4c5-3,6.6-9.6,3.6-14.8
			C483.6,104.1,477.1,102.5,472.2,105.5L472.2,105.5z"/>
	</g>
	<g>
		<path class="st0" d="M417.9,388.2l-69.7-31.3c-2.9-1.3-6.1-1.2-8.9,0.2l-61.6,31.3c-5.1,2.6-7.1,8.8-4.6,13.9
			c2.6,5.1,8.8,7.1,13.9,4.6l57.2-29l65.1,29.2c1.4,0.6,2.8,0.9,4.2,0.9c3.9,0,7.7-2.3,9.4-6.1C425.4,396.7,423.1,390.5,417.9,388.2
			L417.9,388.2z"/>
	</g>
</g>
</svg>
