<?xml version="1.0" encoding="utf-8"?>
<!-- Generator: Adobe Illustrator 21.0.0, SVG Export Plug-In . SVG Version: 6.00 Build 0)  -->
<svg version="1.1" id="图层_1" xmlns="http://www.w3.org/2000/svg" xmlns:xlink="http://www.w3.org/1999/xlink" x="0px" y="0px"
	 viewBox="0 0 200 200" style="enable-background:new 0 0 200 200;" xml:space="preserve">
<style type="text/css">
	.st0{fill:none;stroke:#878787;stroke-miterlimit:10;}
	.st1{fill:#E38010;}
	.st2{fill:#040000;}
	.st3{fill:#F4A418;}
	.st4{fill:#FFFFFF;}
	.st5{fill:#893322;}
	.st6{fill:#D32D19;}
	.st7{fill:#B72C22;}
</style>
<path class="st0" d="M166.8,200H33.3C14.9,200,0,185.1,0,166.8V33.3C0,14.9,14.9,0,33.3,0h133.5C185.1,0,200,14.9,200,33.3v133.5
	C200,185.1,185.1,200,166.8,200z"/>
<g>
	<path class="st1" d="M148.7,162.7c-0.9,6.8-11.9,11-24.7,9.3c-12.8-1.6-22.5-8.5-21.6-15.3s11.9-11,24.7-9.3
		C139.9,149.1,149.5,155.9,148.7,162.7L148.7,162.7z M52.1,162.1c1,6.8,12.5,11.2,25.7,9.7c13.2-1.4,23.1-8.1,22.1-14.9
		c-1-6.8-12.5-11.2-25.7-9.7C60.9,148.6,51.1,155.2,52.1,162.1L52.1,162.1z"/>
	<path class="st2" d="M147.5,73.5c0,25.4-20.7,46-46.3,46s-46.3-20.6-46.3-46s20.7-46,46.3-46C126.8,27.6,147.5,48.2,147.5,73.5
		L147.5,73.5z"/>
	<path class="st3" d="M51.7,160.7c1,6.8,12.5,11.2,25.7,9.7c13.2-1.4,23.1-8.1,22.1-14.9c-1-6.8-12.5-11.2-25.7-9.7
		C60.6,147.2,50.7,153.9,51.7,160.7L51.7,160.7z M149.2,161.1c-0.9,6.8-11.9,11-24.7,9.4s-22.5-8.5-21.6-15.3s11.9-11,24.7-9.3
		C140.4,147.5,150,154.3,149.2,161.1L149.2,161.1z"/>
	<path class="st2" d="M145.2,124.4c0,20.6-20,37.2-44.7,37.2S55.8,145,55.8,124.4s20-37.2,44.7-37.2S145.2,103.9,145.2,124.4
		L145.2,124.4z"/>
	<path class="st2" d="M63.2,117c-6.6,13.1-16.8,21.4-19.9,19.8c-4-2.2-5-15.4,1.5-28.5C51.4,95.2,62,86.8,67,89.4
		C72.1,91.9,69.7,103.9,63.2,117L63.2,117z M138.6,118.7c6,11.9,14.7,21.1,18.3,20.3c3-0.7,5.1-14.6-0.3-27.9
		C151,97.6,141,87.8,135.9,90.4C130.8,92.9,132,105.6,138.6,118.7L138.6,118.7z"/>
	<path class="st4" d="M67.8,101.1c-2.8,5.7-4.3,12.1-4.3,18.9c0,22.6,17,40.8,38,40.8s38-18.3,38-40.8c0-6.6-1.5-12.9-4.1-18.5
		C115.9,111.4,80.5,104.2,67.8,101.1L67.8,101.1z"/>
	<path class="st4" d="M79.9,62.9C79.9,69,84,74,89,74s9.1-5,9.1-11.1S94,51.8,89,51.8C83.9,51.9,79.9,56.8,79.9,62.9L79.9,62.9z"/>
	<path class="st4" d="M124,63c0,6.1-4,11.1-9.1,11.1c-5,0-9.1-5-9.1-11.1s4.1-11.1,9.1-11.1C120,51.9,124,56.9,124,63L124,63z"/>
	<path class="st3" d="M102.8,77.1c-12.6,0-23.6,2.9-29.8,7.4c1.5,3.6,6.2,6.4,10.7,9c5.5,3.2,14.5,5.3,19,5.3
		c4.2,0,14.5-2.8,20.1-6.5c3.9-2.6,8.1-4.8,9.6-7.9C126.3,80.1,115.4,77.1,102.8,77.1L102.8,77.1z"/>
	<path class="st2" d="M96.6,63c0,3.9-2.5,7-5.7,7c-3.1,0-5.7-3.1-5.7-7s2.5-7,5.7-7S96.6,59.1,96.6,63L96.6,63z"/>
	<path class="st4" d="M94.5,61.4c0,1.6-1.1,2.8-2.4,2.8s-2.4-1.3-2.4-2.8c0-1.6,1.1-2.8,2.4-2.8C93.4,58.6,94.5,59.8,94.5,61.4
		L94.5,61.4z"/>
	<path class="st2" d="M110.5,64.8c-0.5,0-1-0.4-1.1-0.9c-0.1-0.3-0.1-0.7-0.1-1.1c0-3,2.1-5.4,4.7-5.4s4.7,2.4,4.7,5.4
		c0,0.3,0,0.5,0,0.8c-0.1,0.6-0.6,1-1.3,1c-0.6-0.1-1.1-0.6-1-1.3c0-0.2,0-0.3,0-0.5c0-1.7-1.1-3.2-2.5-3.2s-2.5,1.4-2.5,3.2
		c0,0.2,0,0.5,0.1,0.7C111.6,64.1,111.2,64.7,110.5,64.8C110.7,64.8,110.6,64.8,110.5,64.8L110.5,64.8z"/>
	<path class="st5" d="M77.5,82.7c0,0,7,6,13.4,7.8c7.5,2.1,18.3,1.1,22.4-0.3c7.5-2.5,15.4-7.9,15.4-7.9s-7,5.4-14.2,10.1
		c-3.6,2.4-7.6,5.8-16,3.9c-2.1-0.5-5.9-3-7.1-3.7C85.2,88.9,78.9,84.1,77.5,82.7L77.5,82.7z"/>
	<path class="st6" d="M85.2,114.5v20.2c0,0-8.4,4-15.8-3.2c-2.9-2.7,1.5-22.2,1.5-22.2L85.2,114.5z"/>
	<path class="st7" d="M69.8,110.5l15.3,12.3c0,0,0.3-7.7-0.1-9.8c-0.3-2.2-15.2-3.5-15.2-3.5"/>
	<path class="st6" d="M102.8,117.9c-19.3,0-37.4-6.8-51.8-19.4c-0.3-0.3-0.2-1.3-0.2-1.3s0.5-2.1,1.5-7.2c0.6-3.6,2.1-8,2.9-8
		c0.5,0.4,1.1,0.9,1.7,1.5c1.1,1,2.1,2,2.4,2.3C71.1,96.9,86.5,103,102.8,103s31.7-6.1,43.6-17.2c0.1-0.1,2.7,3.3,3.8,6.6
		c1.2,3.6,2.5,7.6,1.3,8.5C137.7,111.9,120.7,117.9,102.8,117.9L102.8,117.9z"/>
</g>
</svg>
