<?xml version="1.0" encoding="utf-8"?>
<!-- Generator: Adobe Illustrator 22.0.0, SVG Export Plug-In . SVG Version: 6.00 Build 0)  -->
<svg version="1.1" id="图层_1" xmlns="http://www.w3.org/2000/svg" xmlns:xlink="http://www.w3.org/1999/xlink" x="0px" y="0px"
	 viewBox="0 0 100 100" style="enable-background:new 0 0 100 100;" xml:space="preserve">
<style type="text/css">
	.st0{fill:#FFFFFF;}
</style>
<path class="st0" d="M71.3,80.9H48.4c-1.1,0-1.9-0.9-1.9-1.9c0-1.1,0.9-1.9,1.9-1.9h22.9c1.1,0,1.9,0.9,1.9,1.9
	C73.2,80.1,72.4,80.9,71.3,80.9L71.3,80.9z M43.2,61.2c-4.7,0-8.9-1.2-11.3-3.2c-0.8-0.7-0.9-1.9-0.2-2.7c0.7-0.8,1.9-0.9,2.7-0.2
	c1.7,1.4,5.1,2.3,8.8,2.3c3.6,0,7.1-0.9,8.9-2.3c0.8-0.6,2-0.5,2.7,0.3c0.6,0.8,0.5,2-0.3,2.7C51.9,60.1,47.7,61.2,43.2,61.2
	L43.2,61.2z M76.4,61.2c-4.7,0-8.9-1.2-11.3-3.2c-0.8-0.7-0.9-1.9-0.2-2.7c0.7-0.8,1.9-0.9,2.7-0.2c1.7,1.4,5.1,2.3,8.8,2.3
	c3.6,0,7.1-0.9,8.9-2.3c0.8-0.6,2-0.5,2.7,0.3c0.6,0.8,0.5,2-0.3,2.7C85.2,60.1,81,61.2,76.4,61.2L76.4,61.2z M34.1,51.4
	c-0.7,0-1.4-0.1-2-0.2c-1-0.3-1.6-1.3-1.3-2.4c0.3-1,1.3-1.6,2.4-1.3c0.9,0.3,2.9,0.1,5.1-0.9c2.2-1,3.6-2.4,4.1-3.3
	c0.5-0.9,1.7-1.3,2.6-0.8c0.9,0.5,1.3,1.7,0.8,2.6c-1,1.9-3.2,3.8-5.9,5C37.9,51,35.9,51.4,34.1,51.4L34.1,51.4z M85,51.4
	c-1.7,0-3.7-0.5-5.7-1.4c-2.7-1.2-4.9-3.1-5.9-5c-0.5-0.9-0.1-2.1,0.8-2.6c0.9-0.5,2.1-0.1,2.6,0.8c0.5,0.9,2,2.3,4.1,3.3
	c2.2,1,4.1,1.2,5.1,0.9c1-0.3,2.1,0.3,2.4,1.3c0.3,1-0.3,2.1-1.3,2.4C86.4,51.3,85.7,51.4,85,51.4L85,51.4z M85,51.4"/>
<path class="st0" d="M69,4.9c-1-0.4-2.1,0-2.5,1c-0.4,1,0,2.1,1,2.5c16.8,7.1,27.6,23.4,27.6,41.6c0,24.9-20.3,45.2-45.2,45.2
	C25,95.3,4.7,75,4.7,50.1C4.7,25.2,25,4.9,49.9,4.9C51,4.9,51.8,4,51.8,3c0-1.1-0.9-1.9-1.9-1.9c-27,0-49,22-49,49c0,27,22,49,49,49
	c27,0,49-22,49-49C98.9,30.3,87.2,12.6,69,4.9L69,4.9z"/>
<path class="st0" d="M60.1,4.7c0,1.1,0.9,1.9,1.9,1.9c1.1,0,1.9-0.9,1.9-1.9c0-1.1-0.9-1.9-1.9-1.9C60.9,2.8,60.1,3.6,60.1,4.7
	L60.1,4.7z"/>
</svg>
