<?xml version="1.0" encoding="utf-8"?>
<!-- Generator: Adobe Illustrator 22.1.0, SVG Export Plug-In . SVG Version: 6.00 Build 0)  -->
<svg version="1.1" id="无搜索内容" xmlns="http://www.w3.org/2000/svg" xmlns:xlink="http://www.w3.org/1999/xlink" x="0px"
	 y="0px" viewBox="0 0 378 378" style="enable-background:new 0 0 378 378;" xml:space="preserve">
<style type="text/css">
	.st0{fill:#E5E5E5;}
	.st1{fill:#B8B8B8;}
</style>
<circle id="Oval" class="st0" cx="189" cy="189" r="189"/>
<g id="无搜索内容-2" transform="translate(112.966 102.103)">
	<path id="Shape" class="st1" d="M80.4,176H21.8C9.7,175.9,0,166.1,0,154V22C0,9.9,9.7,0.1,21.8,0h72.6c0.3,0,0.6,0.1,0.8,0.2
		c0.2,0.1,0.5,0.2,0.7,0.4L140.2,39c0.2,0.2,0.3,0.4,0.5,0.6c0.3,0.3,0.5,0.8,0.5,1.2V84c0,0.9-0.7,1.7-1.7,1.8
		c-0.9,0-1.7-0.7-1.8-1.7c0,0,0-0.1,0-0.1V42.7H95.4c-1.7,0-3-1.4-3-3L92.2,3.4H21.8c-10.2,0-18.4,8.3-18.4,18.5V154
		c0,10.2,8.2,18.5,18.4,18.5h58.6c1,0,1.7,0.8,1.7,1.7C82.1,175.2,81.3,176,80.4,176L80.4,176z M95.6,4.9l0.2,34.3h39.4L95.6,4.9z"
		/>
	<path id="Shape-2" class="st1" d="M152.5,172.7c-0.5,0-0.9-0.2-1.2-0.5l-24-24.9c-0.4,0.5-0.9,1-1.5,1.6
		c-15.9,15.9-41.6,15.9-57.4,0c-7.6-7.6-11.9-18-11.9-28.8c0.1-22.4,18.3-40.6,40.7-40.5s40.6,18.3,40.5,40.7
		c0,8.8-2.9,17.4-8.2,24.4l24.2,25.2c0.7,0.7,0.6,1.8-0.1,2.4C153.4,172.5,153,172.7,152.5,172.7z M97.1,82.8
		c-20.6-0.1-37.4,16.6-37.4,37.2s16.6,37.4,37.2,37.4s37.4-16.6,37.4-37.2c0,0,0-0.1,0-0.1C134.3,99.5,117.7,82.8,97.1,82.8z"/>
	<path id="Shape-3" class="st1" d="M40.9,118.4H14.7c-1,0-1.7-0.8-1.7-1.7s0.8-1.7,1.7-1.7h26.1c1,0,1.7,0.8,1.7,1.7
		S41.8,118.4,40.9,118.4z M57.2,84.3H14.7c-1,0-1.7-0.8-1.7-1.7c0-1,0.8-1.7,1.7-1.7h42.5c1,0,1.7,0.8,1.7,1.7S58.2,84.3,57.2,84.3
		C57.2,84.3,57.2,84.3,57.2,84.3z M77.6,50.2H14.7c-1,0-1.7-0.8-1.7-1.7c0-1,0.8-1.7,1.7-1.7h62.8c1,0,1.7,0.8,1.7,1.7
		C79.3,49.4,78.5,50.2,77.6,50.2z"/>
</g>
</svg>
