<?xml version="1.0" encoding="utf-8"?>
<!-- Generator: Adobe Illustrator 21.0.0, SVG Export Plug-In . SVG Version: 6.00 Build 0)  -->
<svg version="1.1" id="图层_1" xmlns="http://www.w3.org/2000/svg" xmlns:xlink="http://www.w3.org/1999/xlink" x="0px" y="0px"
	 viewBox="0 0 200 200" style="enable-background:new 0 0 200 200;" xml:space="preserve">
<style type="text/css">
	.st0{fill:none;stroke:#878787;stroke-miterlimit:10;}
	.st1{fill:#ECC804;}
	.st2{fill:#FE5D62;}
	.st3{fill:#F5DE36;}
	.st4{fill:#AEF348;}
	.st5{fill:#35F432;}
	.st6{fill:#6AD4FE;}
	.st7{fill:#24BBF4;}
	.st8{fill:#615DFC;}
</style>
<path class="st0" d="M166.8,200H33.3C14.9,200,0,185.1,0,166.8V33.3C0,14.9,14.9,0,33.3,0h133.5C185.1,0,200,14.9,200,33.3v133.5
	C200,185.1,185.1,200,166.8,200z"/>
<g>
	<path class="st1" d="M154.3,46c-4.6-4.6-9.7-8.5-15.3-11.8l-7.6,74.1l39.3-37.6C167,61.4,161.4,53,154.3,46z M130.4,29.9
		c-15.3-6.4-32.2-7.6-48.3-3.4l47,57.8L130.4,29.9z M73,29.6C57.6,35.8,44.8,47,36.5,61.3l74.1,7.6L73,29.6z M32.2,69.9
		c-6.4,15.3-7.6,32.2-3.4,48.3l57.7-47L32.2,69.9z M48.3,152c4.6,4.6,9.7,8.5,15.3,11.8l7.6-74.1l-39.3,37.6
		C35.6,136.6,41.2,145,48.3,152z M72.2,168.1c9.2,3.9,19.1,5.9,29.1,5.9c6.5,0,12.9-0.8,19.2-2.5l-47.1-57.8L72.2,168.1z
		 M129.6,168.4c9.3-3.8,17.7-9.3,24.7-16.4c4.6-4.6,8.5-9.7,11.8-15.3L92,129.2L129.6,168.4z M173.8,79.8L116,126.9l54.4,1.2
		C176.8,112.8,178,95.9,173.8,79.8z"/>
	<path class="st2" d="M139,34.2c14.3,8.3,25.5,21.2,31.7,36.5l-39.3,37.6L139,34.2L139,34.2z"/>
	<path class="st1" d="M82.1,26.5c16-4.3,33-3.1,48.3,3.4l-1.2,54.4C129.1,84.2,82.1,26.5,82.1,26.5z"/>
	<path class="st3" d="M36.5,61.3C44.8,46.9,57.6,35.8,73,29.6l37.6,39.3L36.5,61.3z"/>
	<path class="st4" d="M28.8,118.2c-4.3-16-3.1-33,3.4-48.3l54.4,1.2L28.8,118.2z"/>
	<path class="st5" d="M63.5,163.9c-5.6-3.3-10.7-7.2-15.3-11.8c-7.1-7.1-12.7-15.5-16.4-24.7l39.3-37.6L63.5,163.9z"/>
	<path class="st6" d="M101.3,174c-10,0-19.9-2-29.1-5.9l1.2-54.4l47.1,57.8C114.2,173.2,107.7,174,101.3,174z"/>
	<path class="st7" d="M92,129.2l74.1,7.6c-3.3,5.6-7.2,10.7-11.8,15.3c-7.1,7.1-15.5,12.7-24.7,16.4L92,129.2z"/>
	<path class="st8" d="M116,126.9l57.8-47.1c4.2,16,3.1,33-3.4,48.3L116,126.9L116,126.9z"/>
</g>
</svg>
