<?xml version="1.0" encoding="utf-8"?>
<!-- Generator: Adobe Illustrator 21.0.0, SVG Export Plug-In . SVG Version: 6.00 Build 0)  -->
<svg version="1.1" id="图层_1" xmlns="http://www.w3.org/2000/svg" xmlns:xlink="http://www.w3.org/1999/xlink" x="0px" y="0px"
	 viewBox="0 0 200 200" style="enable-background:new 0 0 200 200;" xml:space="preserve">
<style type="text/css">
	.st0{fill:#44AF35;}
	.st1{fill:#FFFFFF;}
</style>
<g>
	<path class="st0" d="M166.8,200H33.3C14.9,200,0,185.1,0,166.8V33.3C0,14.9,14.9,0,33.3,0h133.5C185.1,0,200,14.9,200,33.3v133.5
		C200,185.1,185.1,200,166.8,200z"/>
	<g>
		<path class="st1" d="M126.9,75.6c1.7,0,3.5,0.1,5.2,0.3c-4.6-21.7-27.8-37.7-54.2-37.7c-29.5,0-53.7,20.1-53.7,45.7
			c0,14.8,8,26.9,21.5,36.3l-5.4,16.2l18.8-9.4c6.7,1.3,12.1,2.7,18.8,2.7c1.7,0,3.4-0.1,5-0.2c-1-3.6-1.7-7.4-1.7-11.3
			C81.2,94.6,101.3,75.6,126.9,75.6L126.9,75.6z M98,61c4.1,0,6.7,2.7,6.7,6.7c0,4-2.7,6.7-6.7,6.7c-4,0-8.1-2.7-8.1-6.7
			C89.9,63.7,93.9,61,98,61L98,61z M60.4,74.4c-4,0-8.1-2.7-8.1-6.7c0-4,4.1-6.7,8.1-6.7c4,0,6.7,2.7,6.7,6.7
			C67.1,71.7,64.4,74.4,60.4,74.4L60.4,74.4z M175.9,117.5c0-21.5-21.5-39-45.6-39c-25.6,0-45.7,17.5-45.7,39
			c0,21.5,20.1,39,45.7,39c5.4,0,10.8-1.3,16.1-2.7l14.7,8.1l-4-13.4C167.9,140.3,175.9,129.6,175.9,117.5L175.9,117.5z
			 M115.4,110.7c-2.7,0-5.4-2.7-5.4-5.4c0-2.7,2.7-5.4,5.4-5.4c4.1,0,6.7,2.7,6.7,5.4C122.2,108.1,119.5,110.7,115.4,110.7
			L115.4,110.7z M145,110.7c-2.6,0-5.3-2.7-5.3-5.4c0-2.7,2.7-5.4,5.3-5.4c4,0,6.7,2.7,6.7,5.4C151.7,108.1,149,110.7,145,110.7
			L145,110.7z M145,110.7"/>
	</g>
</g>
</svg>
