<?xml version="1.0" encoding="utf-8"?>
<!-- Generator: Adobe Illustrator 21.0.0, SVG Export Plug-In . SVG Version: 6.00 Build 0)  -->
<svg version="1.1" id="图层_1" xmlns="http://www.w3.org/2000/svg" xmlns:xlink="http://www.w3.org/1999/xlink" x="0px" y="0px"
	 viewBox="0 0 200 200" style="enable-background:new 0 0 200 200;" xml:space="preserve">
<style type="text/css">
	.st0{fill:url(#SVGID_1_);}
	.st1{fill:#FF020E;}
	.st2{fill:#FFA338;}
</style>
<linearGradient id="SVGID_1_" gradientUnits="userSpaceOnUse" x1="197.3562" y1="200.3439" x2="2.5388" y2="-0.4775" gradientTransform="matrix(1 0 0 -1 0 200)">
	<stop  offset="0" style="stop-color:#FCE7A4"/>
	<stop  offset="0.1581" style="stop-color:#FCE59B"/>
	<stop  offset="0.421" style="stop-color:#FDE181"/>
	<stop  offset="0.754" style="stop-color:#FED958"/>
	<stop  offset="0.9944" style="stop-color:#FFD336"/>
</linearGradient>
<path class="st0" d="M166.8,200H33.3C14.9,200,0,185.1,0,166.8V33.3C0,14.9,14.9,0,33.3,0h133.5C185.1,0,200,14.9,200,33.3v133.5
	C200,185.1,185.1,200,166.8,200z"/>
<g>
	<path class="st1" d="M133.8,96.8c0.1-1.3,0.4-2.6,1.2-5.2c1.5-5.4,0.9-10-1.7-13.1c-5.2-6-17.3-4.6-30.8,2.5
		c-2.3-0.3-4.6-0.4-7-0.6c3.1-8.1,2.9-15-0.9-18.9c-8-8.1-29.5-0.1-48.1,18C30.5,95.1,22,112.9,24.9,123c2.8,20.2,30.5,36,64.5,36
		c35.7,0,64.6-17.6,64.6-39.4C154,109.2,146.9,101,133.8,96.8z M87.2,150.7c-24.4,2.8-45.6-7.6-47.4-23.1
		c-1.7-15.5,16.6-30.4,41-33.1c24.4-2.8,45.6,7.6,47.4,23.1C129.9,133.1,111.6,148,87.2,150.7z"/>
	<path d="M80.2,105c-12.8,0.7-24.3,11-23.1,23.7c1,10.6,10.3,15,23.1,15s23.1-9.4,23.1-19.3C103.3,109.3,92.4,104.4,80.2,105z
		 M72.7,135.8c-4.1,0-7.4-2.8-7.4-6.1s3.3-6.1,7.4-6.1s7.4,2.8,7.4,6.1C80.1,133,76.7,135.8,72.7,135.8z M86.2,124.3
		c-1.7,0-3.2-1.5-3.2-3.2s1.5-3.2,3.2-3.2s3.2,1.5,3.2,3.2S87.9,124.3,86.2,124.3z"/>
	<path class="st2" d="M149.8,87.2c-0.3,0-0.6,0-0.7-0.1c-1.9-0.4-3.2-2.3-2.8-4.4c0.6-2.8,0.9-6.8-1.5-9.9
		c-2.5-3.3-7.6-4.6-13.8-3.8c-2,0.3-3.8-1-4.1-3.1c-0.3-2,1-3.8,3.1-4.1c8.9-1.3,16.4,1,20.6,6.5c3.2,4.2,4.2,9.6,2.9,15.8
		C153,86.1,151.4,87.2,149.8,87.2z"/>
	<path class="st2" d="M168.4,97.3c-0.3,0-0.7,0-1-0.1c-2.8-0.6-4.5-3.3-3.9-6.1c1.9-9,3.9-21.8-1.9-28.9c-7.4-8.9-20-12.5-35.4-10.2
		c-2.8,0.4-5.4-1.5-5.8-4.4c-0.4-2.8,1.5-5.4,4.4-5.8c19.2-2.8,35,2,44.7,13.8c8.6,10.4,6.5,26.4,4,37.4
		C172.8,95.5,170.7,97.3,168.4,97.3z"/>
</g>
</svg>
